<svg width="80" height="80" viewBox="0 0 80 80" fill="none" xmlns="http://www.w3.org/2000/svg">
<path d="M57.2079 73.6637C55.8678 73.6637 54.5718 72.9528 53.886 71.6882C52.892 69.8574 53.5714 67.5673 55.4022 66.567C64.336 61.71 69.885 52.3862 69.885 42.2256C69.885 26.9626 57.4658 14.5434 42.2029 14.5434C26.9399 14.5434 14.5207 26.9689 14.5207 42.2319C14.5207 52.3862 20.0697 61.71 28.9972 66.567C30.828 67.561 31.5075 69.8574 30.5072 71.6882C29.5131 73.519 27.2168 74.1985 25.386 73.1981C14.0237 67.02 6.96472 55.1544 6.96472 42.2256C6.97101 22.804 22.775 7 42.2029 7C61.6307 7 77.4347 22.804 77.4347 42.2319C77.4347 55.1607 70.3758 67.0263 59.0072 73.2044C58.4347 73.519 57.8181 73.6637 57.2079 73.6637Z" fill="#EB4248"/>
<path d="M58.9946 49.4292L46.5502 42.7289C43.8323 41.263 40.5923 41.263 37.8744 42.7289L31.023 46.4156C31.023 45.6418 31.0293 44.8491 31.0356 44.0375C38.1449 39.4699 42.033 33.8957 41.7813 28.5292C41.624 25.1822 39.7744 22.3888 36.83 21.055C32.6714 19.1676 27.8018 20.7908 25.5055 24.8298C23.8571 27.7365 23.618 30.8885 23.5866 33.0087C23.5551 34.959 23.53 37.2994 23.5111 39.7216C19.8621 41.8229 14.2124 44.7547 6.68159 44.9372C4.59914 44.9875 2.95079 46.7176 3.00112 48.8064C3.05145 50.8888 4.81305 52.5372 6.87034 52.4868C13.772 52.317 19.3588 50.3037 23.4671 48.3094C23.4608 50.0458 23.4545 51.5683 23.4482 52.7133C23.4482 52.7259 23.4482 52.7385 23.4482 52.7511V54.9216L23.4293 69.8826C23.4293 71.965 25.1154 73.6574 27.1979 73.6637C29.2803 73.6637 30.9727 71.9776 30.9727 69.8952L30.9916 55.016L41.4542 49.3852C41.9323 49.1272 42.4985 49.1272 42.9704 49.3852L53.4267 55.016L53.4078 69.8889C53.4078 71.9713 55.0939 73.6637 57.1764 73.67C59.2588 73.67 60.9512 71.9839 60.9512 69.9014L60.9764 52.77C60.9764 51.3796 60.2151 50.1024 58.9883 49.4418L58.9946 49.4292ZM31.1363 33.1282C31.1677 31.052 31.4571 29.6428 32.0674 28.5606C32.3946 27.9818 32.879 27.8434 33.2439 27.8434C33.4515 27.8434 33.6277 27.8875 33.7032 27.9252C33.8667 28.0007 34.2002 28.1517 34.2316 28.8815C34.282 29.9762 33.5585 32.0083 31.1111 34.4242C31.1111 33.9712 31.1237 33.5371 31.13 33.1219L31.1363 33.1282Z" fill="#EB4248"/>
<mask id="mask0_792_16351" style="mask-type:alpha" maskUnits="userSpaceOnUse" x="6" y="7" width="72" height="67">
<path d="M57.2079 73.6637C55.8678 73.6637 54.5718 72.9528 53.886 71.6882C52.892 69.8574 53.5714 67.5673 55.4022 66.567C64.336 61.71 69.885 52.3862 69.885 42.2256C69.885 26.9626 57.4658 14.5434 42.2029 14.5434C26.9399 14.5434 14.5207 26.9689 14.5207 42.2319C14.5207 52.3862 20.0697 61.71 28.9972 66.567C30.828 67.561 31.5075 69.8574 30.5072 71.6882C29.5131 73.519 27.2168 74.1985 25.386 73.1981C14.0237 67.02 6.96472 55.1544 6.96472 42.2256C6.97101 22.804 22.775 7 42.2029 7C61.6307 7 77.4347 22.804 77.4347 42.2319C77.4347 55.1607 70.3758 67.0263 59.0072 73.2044C58.4347 73.519 57.8181 73.6637 57.2079 73.6637Z" fill="#EB4248"/>
</mask>
<g mask="url(#mask0_792_16351)">
<path opacity="0.4" d="M5.14649 38.2305L4.93259 49.1398L15.5776 45.9123L16.773 36.3431L5.14649 38.2305Z" fill="url(#paint0_linear_792_16351)"/>
<path opacity="0.4" d="M19.5916 55.3243L18.4717 49.1273L6.6879 51.518L8.80181 58.5203L19.5916 55.3243Z" fill="url(#paint1_linear_792_16351)"/>
</g>
<path d="M58.9946 49.4292L46.5502 42.7289C43.8323 41.263 40.5923 41.263 37.8744 42.7289L31.023 46.4156C31.023 45.6418 31.0293 44.8491 31.0356 44.0375C38.1449 39.4699 42.033 33.8957 41.7813 28.5292C41.624 25.1822 39.7744 22.3888 36.83 21.055C32.6714 19.1676 27.8018 20.7908 25.5055 24.8298C23.8571 27.7365 23.618 30.8885 23.5866 33.0087C23.5551 34.959 23.53 37.2994 23.5111 39.7216C19.8621 41.8229 14.2124 44.7547 6.68159 44.9372C4.59914 44.9875 2.95079 46.7176 3.00112 48.8064C3.05145 50.8888 4.81305 52.5372 6.87034 52.4868C13.772 52.317 19.3588 50.3037 23.4671 48.3094C23.4608 50.0458 23.4545 51.5683 23.4482 52.7133C23.4482 52.7259 23.4482 52.7385 23.4482 52.7511V54.9216L23.4293 69.8826C23.4293 71.965 25.1154 73.6574 27.1979 73.6637C29.2803 73.6637 30.9727 71.9776 30.9727 69.8952L30.9916 55.016L41.4542 49.3852C41.9323 49.1272 42.4985 49.1272 42.9704 49.3852L53.4267 55.016L53.4078 69.8889C53.4078 71.9713 55.0939 73.6637 57.1764 73.67C59.2588 73.67 60.9512 71.9839 60.9512 69.9014L60.9764 52.77C60.9764 51.3796 60.2151 50.1024 58.9883 49.4418L58.9946 49.4292ZM31.1363 33.1282C31.1677 31.052 31.4571 29.6428 32.0674 28.5606C32.3946 27.9818 32.879 27.8434 33.2439 27.8434C33.4515 27.8434 33.6277 27.8875 33.7032 27.9252C33.8667 28.0007 34.2002 28.1517 34.2316 28.8815C34.282 29.9762 33.5585 32.0083 31.1111 34.4242C31.1111 33.9712 31.1237 33.5371 31.13 33.1219L31.1363 33.1282Z" fill="#EB4248"/>
<mask id="mask1_792_16351" style="mask-type:alpha" maskUnits="userSpaceOnUse" x="3" y="20" width="58" height="54">
<path d="M58.9946 49.4292L46.5502 42.7289C43.8323 41.263 40.5923 41.263 37.8744 42.7289L31.023 46.4156C31.023 45.6418 31.0293 44.8491 31.0356 44.0375C38.1449 39.4699 42.033 33.8957 41.7813 28.5292C41.624 25.1822 39.7744 22.3888 36.83 21.055C32.6714 19.1676 27.8018 20.7908 25.5055 24.8298C23.8571 27.7365 23.618 30.8885 23.5866 33.0087C23.5551 34.959 23.53 37.2994 23.5111 39.7216C19.8621 41.8229 14.2124 44.7547 6.68159 44.9372C4.59914 44.9875 2.95079 46.7176 3.00112 48.8064C3.05145 50.8888 4.81305 52.5372 6.87034 52.4868C13.772 52.317 19.3588 50.3037 23.4671 48.3094C23.4608 50.0458 23.4545 51.5683 23.4482 52.7133C23.4482 52.7259 23.4482 52.7385 23.4482 52.7511V54.9216L23.4293 69.8826C23.4293 71.965 25.1154 73.6574 27.1979 73.6637C29.2803 73.6637 30.9727 71.9776 30.9727 69.8952L30.9916 55.016L41.4542 49.3852C41.9323 49.1272 42.4985 49.1272 42.9704 49.3852L53.4267 55.016L53.4078 69.8889C53.4078 71.9713 55.0939 73.6637 57.1764 73.67C59.2588 73.67 60.9512 71.9839 60.9512 69.9014L60.9764 52.77C60.9764 51.3796 60.2151 50.1024 58.9883 49.4418L58.9946 49.4292ZM31.1363 33.1282C31.1677 31.052 31.4571 29.6428 32.0674 28.5606C32.3946 27.9818 32.879 27.8434 33.2439 27.8434C33.4515 27.8434 33.6277 27.8875 33.7032 27.9252C33.8667 28.0007 34.2002 28.1517 34.2316 28.8815C34.282 29.9762 33.5585 32.0083 31.1111 34.4242C31.1111 33.9712 31.1237 33.5371 31.13 33.1219L31.1363 33.1282Z" fill="#EB4248"/>
</mask>
<g mask="url(#mask1_792_16351)">
<path opacity="0.4" d="M23.0141 35.0597V43.4587L31.8158 36.815V29.3282L23.0141 35.0597Z" fill="url(#paint2_linear_792_16351)"/>
<path opacity="0.4" d="M31.0231 46.4156L31.1174 41.5964L23.0141 47.1895V52.0465L31.0231 46.4156Z" fill="url(#paint3_linear_792_16351)"/>
</g>
<path d="M6.77596 52.4868C4.73126 52.4868 3.05145 50.8574 3.00112 48.8064C2.95079 46.7239 4.59914 44.9938 6.68159 44.9372C14.9359 44.7358 20.9253 41.2378 24.5051 39.1428C24.8197 38.9603 25.1154 38.7842 25.3922 38.6269C32.5456 34.5249 34.3134 30.5739 34.2316 28.8815C34.2002 28.1517 33.8605 27.9944 33.7032 27.9252C33.4893 27.8308 32.5833 27.6484 32.0674 28.5606C31.0356 30.3726 28.733 31.008 26.921 29.9762C25.1091 28.9444 24.4737 26.6418 25.5055 24.8298C27.8018 20.7908 32.6714 19.1676 36.83 21.055C39.7744 22.3888 41.624 25.1884 41.7813 28.5292C42.0582 34.3487 37.4528 40.4136 29.1545 45.1762C28.8902 45.3272 28.6134 45.4908 28.3177 45.6607C24.3856 47.957 17.0687 52.2289 6.87034 52.4805C6.83888 52.4805 6.80742 52.4805 6.77596 52.4805V52.4868Z" fill="#EB4248"/>
<defs>
<linearGradient id="paint0_linear_792_16351" x1="11.7932" y1="52.4895" x2="9.3057" y2="39.4724" gradientUnits="userSpaceOnUse">
<stop/>
<stop offset="1" stop-opacity="0"/>
</linearGradient>
<linearGradient id="paint1_linear_792_16351" x1="12.4282" y1="45.5824" x2="13.5051" y2="56.0083" gradientUnits="userSpaceOnUse">
<stop/>
<stop offset="1" stop-opacity="0"/>
</linearGradient>
<linearGradient id="paint2_linear_792_16351" x1="30.1108" y1="43.1064" x2="26.3485" y2="33.7322" gradientUnits="userSpaceOnUse">
<stop/>
<stop offset="1" stop-opacity="0"/>
</linearGradient>
<linearGradient id="paint3_linear_792_16351" x1="24.7631" y1="42.8862" x2="27.9214" y2="48.2779" gradientUnits="userSpaceOnUse">
<stop offset="0.27"/>
<stop offset="1" stop-opacity="0"/>
</linearGradient>
</defs>
</svg>
